<svg fill="#000000" xmlns="http://www.w3.org/2000/svg"  viewBox="0 0 50 50" width="50px" height="50px"><path d="M 22 0 L 22 8.2421875 C 22.329 8.4261875 22.65275 8.6192187 22.96875 8.8242188 C 22.97775 8.8292188 22.987094 8.8367969 22.996094 8.8417969 C 22.997094 8.8427969 22.999 8.84275 23 8.84375 C 23.326 8.63175 23.661 8.4311875 24 8.2421875 C 26.606 6.7851875 29.577609 6 32.599609 6 C 33.484609 6 34.347266 6.0868906 35.197266 6.2128906 C 36.324266 3.6668906 36.489047 1.2095938 36.498047 1.0585938 C 36.515047 0.78359375 36.389219 0.51545313 36.199219 0.31445312 C 36.010219 0.11345312 35.719359 0 35.443359 0 C 34.865359 0 29.699453 0.092484375 26.314453 3.2714844 C 25.313453 4.2114844 24.567 5.2931875 24 6.3671875 L 24 0 L 22 0 z M 13.400391 8 C 11.750391 8 10.159922 8.2604687 8.6699219 8.7304688 C 8.0299219 8.9304687 7.4007813 9.1809375 6.8007812 9.4609375 C 8.2107813 11.860938 8.1 14.880156 8 15.910156 L 7.9296875 16.779297 L 8.7792969 16.980469 C 8.9992969 17.030469 14.330781 18.290312 16.050781 23.320312 C 17.390781 27.210313 16.010859 31.639844 12.630859 34.339844 L 12 34.839844 L 12.349609 35.560547 C 13.549609 38.050547 13.349375 40.930234 11.859375 42.740234 C 11.049375 43.710234 9.8409375 44.399453 8.4609375 44.689453 C 9.0709375 45.239453 9.6792969 45.760469 10.279297 46.230469 C 13.329297 48.630469 16.269219 50 18.199219 50 C 19.869219 50 21.48 49.609844 23 48.839844 C 24.52 49.609844 26.130781 50 27.800781 50 C 33.970781 50 48 39.839609 48 23.099609 C 48 14.769609 41.089609 8 32.599609 8 C 29.089609 8 25.72 9.1707812 23 11.300781 C 20.28 9.1707812 16.910391 8 13.400391 8 z"/></svg>