<?xml version="1.0" encoding="UTF-8"?>
<svg xmlns="http://www.w3.org/2000/svg" xmlns:xlink="http://www.w3.org/1999/xlink" width="50pt" height="50pt" viewBox="0 0 50 50" version="1.1">
<g id="surface2896237">
<path style=" stroke:none;fill-rule:nonzero;fill:rgb(90.588236%,29.803923%,23.529412%);fill-opacity:1;" d="M 25 2 C 12.308594 2 2 12.308594 2 25 C 2 37.691406 12.308594 48 25 48 C 37.691406 48 48 37.691406 48 25 C 48 12.308594 37.691406 2 25 2 Z M 25 4 C 36.609375 4 46 13.390625 46 25 C 46 36.609375 36.609375 46 25 46 C 13.390625 46 4 36.609375 4 25 C 4 13.390625 13.390625 4 25 4 Z M 17.3125 14.96875 L 23.9375 24.78125 L 17.25 34.71875 L 20.25 34.71875 L 25.375 27.09375 L 25.59375 27.09375 L 30.65625 34.71875 L 33.84375 34.71875 L 27.1875 24.875 L 34 14.96875 L 30.9375 14.96875 L 25.8125 22.6875 L 25.5625 22.6875 L 20.5625 14.96875 Z M 17.3125 14.96875 "/>
</g>
</svg>
