<?xml version="1.0" encoding="UTF-8"?>
<svg xmlns="http://www.w3.org/2000/svg" xmlns:xlink="http://www.w3.org/1999/xlink" width="30pt" height="30pt" viewBox="0 0 30 30" version="1.1">
<g id="surface2004300">
<path style=" stroke:none;fill-rule:nonzero;fill:rgb(100%,71.372551%,47.843137%);fill-opacity:1;" d="M 14.992188 29.0625 C 7.3125 29.0625 1.140625 23.046875 0.941406 15.367188 C 0.742188 7.613281 6.882812 1.144531 14.632812 0.941406 C 14.757812 0.9375 14.882812 0.9375 15.007812 0.9375 C 22.6875 0.9375 28.859375 6.953125 29.058594 14.632812 C 29.257812 22.386719 23.117188 28.855469 15.367188 29.058594 C 15.242188 29.0625 15.117188 29.0625 14.992188 29.0625 Z M 14.992188 29.0625 "/>
<path style=" stroke:none;fill-rule:nonzero;fill:rgb(94.509804%,53.725493%,53.725493%);fill-opacity:1;" d="M 15.007812 0.75 L 15.007812 1.125 C 18.636719 1.125 22.070312 2.519531 24.675781 5.054688 C 27.285156 7.59375 28.777344 11 28.871094 14.640625 C 28.96875 18.34375 27.613281 21.863281 25.0625 24.554688 C 22.511719 27.242188 19.066406 28.773438 15.359375 28.871094 C 15.238281 28.875 15.113281 28.875 14.992188 28.875 C 11.363281 28.875 7.929688 27.480469 5.324219 24.945312 C 2.714844 22.40625 1.222656 19.003906 1.128906 15.359375 C 0.929688 7.710938 6.992188 1.328125 14.640625 1.128906 C 14.761719 1.125 14.886719 1.125 15.007812 1.125 L 15.007812 0.75 M 15.007812 0.75 C 14.882812 0.75 14.753906 0.75 14.628906 0.753906 C 6.761719 0.960938 0.550781 7.503906 0.753906 15.371094 C 0.957031 23.113281 7.292969 29.25 14.992188 29.25 C 15.117188 29.25 15.246094 29.25 15.371094 29.246094 C 23.238281 29.039062 29.449219 22.496094 29.246094 14.628906 C 29.042969 6.886719 22.707031 0.75 15.007812 0.75 Z M 15.007812 0.75 "/>
<path style=" stroke:none;fill-rule:nonzero;fill:rgb(100%,100%,100%);fill-opacity:1;" d="M 15 19.125 C 14.378906 19.125 13.875 19.628906 13.875 20.25 C 13.875 20.871094 14.378906 21.375 15 21.375 C 15.621094 21.375 16.125 20.871094 16.125 20.25 C 16.125 19.628906 15.621094 19.125 15 19.125 Z M 14.25 7.5 L 15.75 7.5 L 15.75 17.25 L 14.25 17.25 Z M 14.25 7.5 "/>
</g>
</svg>
