<?xml version="1.0" encoding="UTF-8"?>
<svg xmlns="http://www.w3.org/2000/svg" xmlns:xlink="http://www.w3.org/1999/xlink" width="150pt" height="150pt" viewBox="0 0 150 150" version="1.1">
<g id="surface38792242">
<path style=" stroke:none;fill-rule:nonzero;fill:rgb(18.431373%,33.333334%,44.705883%);fill-opacity:1;" d="M 78 3 C 76.347656 3 75 4.347656 75 6 C 75 14.765625 71.25 18.070312 66.9375 21.9375 C 62.296875 26.097656 57.09375 30.84375 57.09375 42 C 57.09375 43.652344 58.441406 45 60.09375 45 C 61.746094 45 63.09375 43.652344 63.09375 42 C 63.09375 33.527344 66.726562 30.246094 70.96875 26.4375 C 75.679688 22.21875 81 17.449219 81 6 C 81 4.347656 79.664062 3 78 3 Z M 93 18 C 91.335938 18 90 19.347656 90 21 C 90 26.449219 87.773438 28.417969 84.9375 30.9375 C 81.84375 33.691406 78 37.160156 78 45 C 78 46.652344 79.335938 48 81 48 C 82.664062 48 84 46.652344 84 45 C 84 39.84375 86.097656 37.992188 88.96875 35.4375 C 92.121094 32.625 96 29.144531 96 21 C 96 19.347656 94.664062 18 93 18 Z M 33 54 C 31.347656 54 30 55.347656 30 57 L 30 141 C 30 145.957031 34.042969 150 39 150 L 102 150 C 106.957031 150 111 145.957031 111 141 L 111 57 C 111 55.347656 109.664062 54 108 54 Z M 117 75 L 117 81 L 120 81 C 126.140625 81 129 83.859375 129 90 C 129 95.285156 127.96875 110.496094 117 115.40625 L 117 121.875 C 130.089844 117.855469 135 103.546875 135 90 C 135 80.601562 129.398438 75 120 75 Z M 117 75 "/>
</g>
</svg>
