<?xml version="1.0" encoding="utf-8"?>
<!-- Generator: Adobe Illustrator 25.0.1, SVG Export Plug-In . SVG Version: 6.00 Build 0)  -->
<svg version="1.1" id="Layer_2" xmlns="http://www.w3.org/2000/svg" xmlns:xlink="http://www.w3.org/1999/xlink" x="0px" y="0px"
	 viewBox="0 0 100 100" style="enable-background:new 0 0 100 100;" xml:space="preserve">
<style type="text/css">
	.st0{fill:#2F5572;}
</style>
<g id="surface38768692">
	<path class="st0" d="M76.4,4c-6.1,0-11.2,5-11.2,11.2c0,1.3,0.7,2.6,1.8,3.3s2.6,0.7,3.7,0c1.2-0.7,1.9-1.9,1.8-3.3
		c0-2.1,1.6-3.7,3.7-3.7c2.1,0,2.5,0.7,3,1.8s0.7,2.2,0.7,2.2c0.1,2,1.8,3.5,3.7,3.5c2.1,0,3.7,1.6,3.7,3.7s-1.6,3.7-3.7,3.7
		c-1,0-2-0.4-2.6-1.1c-1.5-1.5-3.8-1.5-5.3,0l-7.3,7.3c-0.3-0.4-0.7-0.8-1-1.2c-5.6-5.6-15.7-6-26.3-3.8l5.2,5.2
		c1.5,1.5,1.5,3.8,0,5.3c-0.7,0.7-1.7,1.1-2.6,1.1c-0.8,0-1.5-0.3-2.2-0.8l-18-18c1.2-3.2,0.5-6.9-2-9.4c-3.5-3.5-16-3.4-16-3.4
		S5.5,20.2,9,23.7c2.6,2.6,6.3,3.2,9.5,2l7,7c-6.5,2.8-12.3,6.3-16.3,9.7c-0.7,0.5-1.4,1.1-2,1.7c-4.9,4.9-6.1,12.2-4.6,19.4
		c1.5,7.2,5.6,14.6,11.9,20.9s13.7,10.4,20.9,11.9c7.2,1.5,14.5,0.3,19.4-4.6c1.3-1.3,2.3-2.8,3.1-4.3c2.8-3.9,5.6-8.9,7.9-14.3
		l15.4,15.4c0.9,1,2.3,1.4,3.6,1c1.3-0.3,2.3-1.4,2.7-2.7c0.3-1.3-0.1-2.7-1-3.6L68.8,65.5c3-9,4.5-18.4,3-25.6l7.9-7.9
		c1.4,0.6,2.6,1.7,4.2,1.7c6.1,0,11.2-5,11.2-11.2c0-4.9-3.6-8.4-8.1-9.9c-0.2-1-0.1-1.5-0.9-3C84.6,7,81.2,4,76.4,4z M21.2,46.4
		c1.2,0,2.5,0.2,3.9,0.5c5.5,1.2,11.8,4.5,17.2,9.9s8.8,11.7,9.9,17.2c1.2,5.5,0.2,9.9-2.6,12.6s-7.1,3.7-12.6,2.6
		s-11.8-4.5-17.2-9.9S11,67.5,9.9,62s-0.2-9.9,2.6-12.6C14.5,47.4,17.5,46.3,21.2,46.4z M26.6,60.8c-1.5-0.1-2.8,0.4-3.7,1.3
		c-2.4,2.4-1.2,7.6,2.7,11.5c3.9,3.9,9,5.1,11.5,2.7c2.4-2.4,1.2-7.6-2.7-11.5C32,62.3,29.1,60.9,26.6,60.8z"/>
</g>
</svg>
