<?xml version="1.0" encoding="UTF-8"?>
<svg xmlns="http://www.w3.org/2000/svg" xmlns:xlink="http://www.w3.org/1999/xlink" width="15pt" height="15pt" viewBox="0 0 15 15" version="1.1">
<g id="surface631696">
<path style=" stroke:none;fill-rule:nonzero;fill:rgb(100%,100%,100%);fill-opacity:1;" d="M 14.882812 0.0664062 C 14.789062 -0.0078125 14.664062 -0.015625 14.558594 0.0390625 L 0.15625 7.839844 C 0.0546875 7.894531 -0.0078125 8.007812 0.00390625 8.128906 C 0.015625 8.246094 0.09375 8.347656 0.207031 8.382812 L 4.300781 9.71875 L 3.90625 13.769531 C 3.890625 13.898438 3.964844 14.023438 4.082031 14.070312 C 4.117188 14.089844 4.160156 14.097656 4.199219 14.097656 C 4.28125 14.097656 4.367188 14.0625 4.421875 13.996094 L 7.003906 11.082031 L 10.890625 14.914062 C 10.949219 14.96875 11.023438 14.996094 11.101562 14.996094 C 11.125 14.996094 11.152344 14.992188 11.179688 14.984375 C 11.28125 14.957031 11.363281 14.875 11.386719 14.773438 L 14.988281 0.371094 C 15.015625 0.257812 14.976562 0.136719 14.882812 0.0664062 Z M 4.902344 9.664062 L 10.757812 4.929688 L 6.765625 10.453125 L 4.585938 12.917969 Z M 4.902344 9.664062 "/>
</g>
</svg>
