<?xml version="1.0" encoding="UTF-8"?>
<svg xmlns="http://www.w3.org/2000/svg" xmlns:xlink="http://www.w3.org/1999/xlink" width="150pt" height="150pt" viewBox="0 0 150 150" version="1.1">
<g id="surface38795022">
<path style=" stroke:none;fill-rule:nonzero;fill:rgb(18.431373%,33.333334%,44.705883%);fill-opacity:1;" d="M 8.777344 9 L 17.625 132.609375 C 17.941406 137.308594 21.890625 141 26.601562 141 L 69.398438 141 C 74.097656 141 78.058594 137.308594 78.375 132.609375 L 78.667969 128.484375 C 85.277344 134.378906 93.960938 138 103.5 138 C 124.171875 138 141 121.171875 141 100.5 C 141 84.984375 131.519531 71.636719 118.042969 65.941406 C 128.261719 61.207031 135.855469 51.421875 137.953125 39.65625 L 138.527344 36.386719 L 135.234375 36.140625 C 134.496094 36.070312 133.652344 36 132.714844 36 C 118.183594 36 105.84375 45.515625 100.839844 58.839844 L 98.953125 47.507812 C 98.742188 46.066406 97.511719 44.988281 96.046875 44.953125 C 95.15625 44.941406 94.289062 45.328125 93.714844 46.007812 C 93.128906 46.699219 92.882812 47.601562 93.046875 48.492188 L 95.601562 63.855469 C 91.007812 64.851562 86.71875 66.667969 82.921875 69.175781 L 87.222656 9 Z M 15.222656 15 L 80.777344 15 L 78.84375 42 L 17.15625 42 Z M 130.699219 42.375 C 127.136719 53.625 117.808594 61.722656 106.300781 62.625 C 109.863281 51.375 119.191406 43.277344 130.699219 42.375 Z M 17.578125 48 L 78.421875 48 L 76.523438 74.449219 L 73.089844 122.414062 L 72.386719 132.199219 C 72.28125 133.804688 71.003906 135 69.398438 135 L 26.601562 135 C 24.996094 135 23.71875 133.804688 23.613281 132.199219 Z M 103.5 69 C 120.925781 69 135 83.074219 135 100.5 C 135 117.925781 120.925781 132 103.5 132 C 93.667969 132 85.03125 127.429688 79.253906 120.386719 L 82.324219 77.425781 C 87.9375 72.28125 95.273438 69 103.5 69 Z M 111 102 C 109.347656 102 108 103.347656 108 105 C 108 106.652344 109.347656 108 111 108 C 112.652344 108 114 106.652344 114 105 C 114 103.347656 112.652344 102 111 102 Z M 123 102 C 121.347656 102 120 103.347656 120 105 C 120 106.652344 121.347656 108 123 108 C 124.652344 108 126 106.652344 126 105 C 126 103.347656 124.652344 102 123 102 Z M 117 111 C 115.347656 111 114 112.347656 114 114 C 114 115.652344 115.347656 117 117 117 C 118.652344 117 120 115.652344 120 114 C 120 112.347656 118.652344 111 117 111 Z M 117 111 "/>
</g>
</svg>
