<?xml version="1.0" encoding="utf-8"?>
<!-- Generator: Adobe Illustrator 25.0.1, SVG Export Plug-In . SVG Version: 6.00 Build 0)  -->
<svg version="1.1" id="Layer_3" xmlns="http://www.w3.org/2000/svg" xmlns:xlink="http://www.w3.org/1999/xlink" x="0px" y="0px"
	 viewBox="0 0 100 100" style="enable-background:new 0 0 100 100;" xml:space="preserve">
<style type="text/css">
	.st0{fill:#2F5572;}
</style>
<g id="surface42339153">
	<path class="st0" d="M6.7,9C3,9,0,12,0,15.7v53.2c0,3.7,3,6.7,6.7,6.7h26.6c3.7,0,6.7,3,6.7,6.7V15.7c0-3.7-3-6.7-6.7-6.7H6.7z
		 M53.2,9c-3.7,0-6.7,3-6.7,6.7v66.5c0-3.7,3-6.7,6.7-6.7h26.6c3.7,0,6.7-3,6.7-6.7V15.7c0-3.7-3-6.7-6.7-6.7H53.2z M20,15.7
		c4.4,0,10,6,10,13c0,9-8,8.9-8,12.7c0,3.2,1.3,23.1,1.3,24.2c0,1.8-1.5,3.3-3.3,3.3c-1.8,0-3.3-1.5-3.3-3.3c0-1.1,1.3-21,1.3-24.2
		c0-3.8-8-3.7-8-12.7C10,21.6,15.6,15.7,20,15.7z M56.6,25.6h20c1.8,0,3.3,1.5,3.3,3.3c0,1.8-1.5,3.3-3.3,3.3h-20
		c-1.8,0-3.3-1.5-3.3-3.3C53.2,27.1,54.7,25.6,56.6,25.6z M56.6,38.9h13.3c1.8,0,3.3,1.5,3.3,3.3c0,1.8-1.5,3.3-3.3,3.3H56.6
		c-1.8,0-3.3-1.5-3.3-3.3C53.2,40.4,54.7,38.9,56.6,38.9z M56.6,52.3h20c1.8,0,3.3,1.5,3.3,3.3s-1.5,3.3-3.3,3.3h-20
		c-1.8,0-3.3-1.5-3.3-3.3S54.7,52.3,56.6,52.3z"/>
</g>
</svg>
