<?xml version="1.0" encoding="UTF-8"?>
<svg xmlns="http://www.w3.org/2000/svg" xmlns:xlink="http://www.w3.org/1999/xlink" width="100pt" height="100pt" viewBox="0 0 100 100" version="1.1">
<g id="surface42332819">
<path style=" stroke:none;fill-rule:nonzero;fill:rgb(18.431373%,33.333334%,44.705883%);fill-opacity:1;" d="M 44 0 L 44 16.484375 C 44.65625 16.851562 45.304688 17.238281 45.9375 17.648438 C 45.957031 17.660156 45.972656 17.671875 45.992188 17.683594 C 45.996094 17.6875 45.996094 17.683594 46 17.6875 C 46.652344 17.261719 47.320312 16.863281 48 16.484375 C 53.210938 13.570312 59.15625 12 65.199219 12 C 66.96875 12 68.695312 12.171875 70.394531 12.425781 C 72.648438 7.332031 72.976562 2.417969 72.996094 2.117188 C 73.03125 1.566406 72.777344 1.03125 72.398438 0.628906 C 72.019531 0.226562 71.4375 0 70.886719 0 C 69.730469 0 59.398438 0.183594 52.628906 6.542969 C 50.625 8.421875 49.132812 10.585938 48 12.734375 L 48 0 Z M 26.800781 16 C 23.5 16 20.320312 16.519531 17.339844 17.460938 C 16.058594 17.859375 14.800781 18.363281 13.601562 18.921875 C 16.421875 23.722656 16.199219 29.761719 16 31.820312 L 15.859375 33.558594 L 17.558594 33.960938 C 18 34.0625 28.660156 36.582031 32.101562 46.640625 C 34.78125 54.421875 32.023438 63.28125 25.261719 68.679688 L 24 69.679688 L 24.699219 71.121094 C 27.097656 76.101562 26.699219 81.859375 23.71875 85.480469 C 22.097656 87.421875 19.683594 88.800781 16.921875 89.378906 C 18.140625 90.480469 19.359375 91.519531 20.558594 92.460938 C 26.660156 97.261719 32.539062 100 36.398438 100 C 39.738281 100 42.960938 99.21875 46 97.679688 C 49.039062 99.21875 52.261719 100 55.601562 100 C 67.941406 100 96 79.679688 96 46.199219 C 96 29.539062 82.179688 16 65.199219 16 C 58.179688 16 51.441406 18.339844 46 22.601562 C 40.558594 18.339844 33.820312 16 26.800781 16 Z M 26.800781 16 "/>
</g>
</svg>
