<?xml version="1.0" encoding="utf-8"?>
<!-- Generator: Adobe Illustrator 25.0.1, SVG Export Plug-In . SVG Version: 6.00 Build 0)  -->
<svg version="1.1" id="Layer_3" xmlns="http://www.w3.org/2000/svg" xmlns:xlink="http://www.w3.org/1999/xlink" x="0px" y="0px"
	 viewBox="0 0 100 58.9" style="enable-background:new 0 0 100 58.9;" xml:space="preserve">
<style type="text/css">
	.st0{fill:#2F5572;}
</style>
<g id="surface38792242">
	<path class="st0" d="M17,2c-0.5,0-1,0.4-1,1c0,2.8-1.2,3.9-2.6,5.1c-1.5,1.3-3.2,2.9-3.2,6.5c0,0.5,0.4,1,1,1c0.5,0,1-0.4,1-1
		c0-2.7,1.2-3.8,2.5-5C16.3,8.2,18,6.6,18,2.9C18,2.4,17.6,2,17,2z M21.9,6.8c-0.5,0-1,0.4-1,1c0,1.8-0.7,2.4-1.6,3.2
		c-1,0.9-2.2,2-2.2,4.5c0,0.5,0.4,1,1,1s1-0.4,1-1c0-1.7,0.7-2.3,1.6-3.1c1-0.9,2.3-2,2.3-4.7C22.8,7.2,22.4,6.8,21.9,6.8z
		 M2.5,18.4c-0.5,0-1,0.4-1,1v27.1c0,1.6,1.3,2.9,2.9,2.9h20.3c1.6,0,2.9-1.3,2.9-2.9V19.4c0-0.5-0.4-1-1-1H2.5z"/>
</g>
<g id="surface38795022">
	<path class="st0" d="M30.6,15.3l2.3,32.1c0.1,1.2,1.1,2.2,2.3,2.2h11.1c1.2,0,2.2-1,2.3-2.2l0.1-1.1c1.7,1.5,4,2.5,6.5,2.5
		c5.4,0,9.7-4.4,9.7-9.7c0-4-2.5-7.5-6-9c2.7-1.2,4.6-3.8,5.2-6.8l0.1-0.8l-0.9-0.1c-0.2,0-0.4,0-0.7,0c-3.8,0-7,2.5-8.3,5.9
		L54,25.3c-0.1-0.4-0.4-0.7-0.8-0.7c-0.2,0-0.5,0.1-0.6,0.3c-0.2,0.2-0.2,0.4-0.2,0.6l0.7,4c-1.2,0.3-2.3,0.7-3.3,1.4L51,15.3H30.6z
		 M32.3,16.8h17l-0.5,7h-16L32.3,16.8z M62.3,23.9c-0.9,2.9-3.3,5-6.3,5.3C56.9,26.3,59.3,24.2,62.3,23.9z M32.9,25.4h15.8l-0.5,6.9
		l-0.9,12.5l-0.2,2.5c0,0.4-0.4,0.7-0.8,0.7H35.2c-0.4,0-0.7-0.3-0.8-0.7L32.9,25.4z M55.2,30.8c4.5,0,8.2,3.7,8.2,8.2
		s-3.7,8.2-8.2,8.2c-2.6,0-4.8-1.2-6.3-3L49.7,33C51.2,31.7,53.1,30.8,55.2,30.8z M57.2,39.4c-0.4,0-0.8,0.4-0.8,0.8
		s0.4,0.8,0.8,0.8s0.8-0.4,0.8-0.8S57.6,39.4,57.2,39.4z M60.3,39.4c-0.4,0-0.8,0.4-0.8,0.8s0.4,0.8,0.8,0.8s0.8-0.4,0.8-0.8
		S60.7,39.4,60.3,39.4z M58.7,41.7c-0.4,0-0.8,0.4-0.8,0.8s0.4,0.8,0.8,0.8s0.8-0.4,0.8-0.8S59.2,41.7,58.7,41.7z"/>
</g>
</svg>
