<svg id="Layer_1" data-name="Layer 1" xmlns="http://www.w3.org/2000/svg" width="0.89in" height="0.89in" viewBox="0 0 64 64"><defs><style>.cls-1{fill:#2f5572;}</style></defs><title>rain</title><path class="cls-1" d="M36,0A20.42,20.42,0,0,0,16,16,16,16,0,0,0,0,32,15.39,15.39,0,0,0,4.23,42.72,11.89,11.89,0,0,1,12,40a10.46,10.46,0,0,1,4.47,1,11.87,11.87,0,0,1,23,0A11.51,11.51,0,0,1,55,47.52,12.07,12.07,0,0,0,64,36c0-5.2-3.36-10.32-8-12V20A20,20,0,0,0,36,0ZM26.69,40A4,4,0,0,0,24,44V60a4,4,0,0,0,8,0h0V44A4,4,0,0,0,28,39.94a3.34,3.34,0,0,0-.77.06Zm-16,8A4,4,0,0,0,8,52v8a4,4,0,0,0,8,0h0V52A4,4,0,0,0,12,47.94a3.34,3.34,0,0,0-.77.06h-.56Zm32,0A4,4,0,0,0,40,52v8a4,4,0,0,0,8,0V52A4,4,0,0,0,44,47.94a3.34,3.34,0,0,0-.77.06h-.56Z"/></svg>