<svg id="Layer_1" data-name="Layer 1" xmlns="http://www.w3.org/2000/svg" width="0.83in" height="0.89in" viewBox="0 0 60 64"><defs><style>.cls-1{fill:#2f5572;}</style></defs><title>wifi</title><path class="cls-1" d="M29.88,0A55.4,55.4,0,0,0,0,8.72L4.22,15.2A47.34,47.34,0,0,1,29.88,7.92a47.33,47.33,0,0,1,25.9,7.28L60,8.72A55.49,55.49,0,0,0,29.88,0Zm0,24a31.07,31.07,0,0,0-17,5l4.22,6.72A23.07,23.07,0,0,1,29.8,32a24.15,24.15,0,0,1,13,3.76L47,29a32.42,32.42,0,0,0-17.2-5h.08Zm0,24a8,8,0,1,0,8,8h0A8,8,0,0,0,29.88,48Z"/></svg>